<svg width="24" height="24" xmlns="http://www.w3.org/2000/svg">

 <title/>
 <g>
  <title>background</title>
  <rect fill="none" id="canvas_background" height="402" width="582" y="-1" x="-1"/>
 </g>
 <g>
  <title>Layer 1</title>
  <path fill="#bbbbbb" id="svg_1" d="m12,0a12,12 0 1 0 12,12a12,12 0 0 0 -12,-12zm0,22a10,10 0 1 1 7.81,-16.23c0.21,0.27 0.41,0.55 0.6,0.83l0,0c0.18,0.29 0.35,0.58 0.51,0.89a10,10 0 0 1 -8.92,14.51z" class="cls-1"/>
  <path fill="#bbbbbb" id="svg_2" d="m11,14.59l-5.06,-5.07l-1.42,1.42l6.48,6.47l8.41,-8.41a8,8 0 0 0 -1,-1.8l-7.41,7.39z" class="cls-1"/>
 </g>
</svg>