<svg width="24" height="24" xmlns="http://www.w3.org/2000/svg">

 <title/>
 <g>
  <title>background</title>
  <rect fill="none" id="canvas_background" height="402" width="582" y="-1" x="-1"/>
 </g>
 <g>
  <title>Layer 1</title>
  <polygon fill="#bbbbbb" id="svg_1" points="18 22 6 22 6 8 4 8 4 24 20 24 20 8 18 8 18 22" class="cls-1"/>
  <path fill="#bbbbbb" id="svg_2" d="m18,4l0,-4l-12,0l0,4l-5,0l0,2l22,0l0,-2l-5,0zm-2,0l-8,0l0,-2l8,0l0,2z" class="cls-1"/>
  <rect fill="#bbbbbb" id="svg_3" y="10" x="8" width="2" height="10" class="cls-1"/>
  <rect fill="#bbbbbb" id="svg_4" y="10" x="14" width="2" height="10" class="cls-1"/>
 </g>
</svg>